<svg id="Layer_1" data-name="Layer 1" xmlns="http://www.w3.org/2000/svg" width="106" height="39" viewBox="0 0 106 38"><defs><style>.cls-1{fill:#fff}</style></defs><path class="cls-1" d="M16.96 12.16V3.82L20.77 0h8.34v24.31L16.96 12.16zm0 0V3.82L13.14 0H4.81v24.31l12.15-12.15z"/><path fill="#26a9e0" d="M16.96 12.16V3.82l12.15 12.15v8.34L16.96 12.16z"/><path fill="#FFFFFF" d="M16.96 12.16V3.82L4.81 15.97v8.34l12.15-12.15z"/><path class="cls-1" d="M35.19 2.03h5.04l5.9 11 5.9-11h5.22v20.28h-4.58V8.91l-5.44 10.14h-2.37l-5.29-9.83v13.09h-4.39V2.03zm25.63 0h4.58v20.28h-4.58V2.03zm8.15 0h6.98c7.07 0 10.94 3.66 10.94 10.14s-3.87 10.14-10.94 10.14h-6.98V2.03zm6.85 16.19c4.3 0 6.33-2.03 6.33-6.05s-2.03-6.05-6.33-6.05h-2.27v12.11h2.27zm13.3-16.19h15v4.09H93.7v4.12h8.94v4.09H93.7v7.99h-4.58V2.03zM17.57 35.84l1.84-4.15h.48l1.87 4.15h-.57l-.51-1.18.24.14h-2.53l.26-.14-.51 1.18h-.56zm2.07-3.54l-.92 2.18-.14-.12h2.14l-.11.12-.94-2.18h-.02zm4.08 3.54v-2.26c0-.11 0-.23-.01-.35s-.02-.24-.04-.35h.52l.06.64h-.07c.08-.22.2-.39.38-.51s.38-.18.62-.18.44.06.6.17c.16.12.26.3.32.54h-.09c.07-.22.21-.39.39-.52.19-.13.41-.19.66-.19.33 0 .57.1.74.29s.25.49.25.89v1.84h-.54v-1.81c0-.27-.05-.47-.14-.59-.09-.12-.24-.18-.45-.18-.24 0-.43.08-.57.24-.14.16-.21.38-.21.66v1.67h-.54v-1.81c0-.27-.05-.47-.14-.59-.09-.12-.24-.18-.45-.18-.24 0-.43.08-.56.24-.14.16-.2.38-.2.66v1.67h-.54zm6.48.06c-.47 0-.84-.14-1.12-.41-.27-.27-.41-.64-.41-1.12 0-.31.06-.59.18-.82s.29-.41.5-.54c.21-.13.46-.19.74-.19s.5.06.69.17c.19.12.33.28.43.49.1.21.15.46.15.75v.18h-2.27v-.32h1.9l-.1.08c0-.31-.07-.54-.2-.71-.14-.17-.33-.25-.6-.25-.29 0-.51.1-.67.3s-.24.47-.24.81v.05c0 .36.09.63.27.82.18.18.43.28.74.28.18 0 .34-.03.49-.08.15-.05.3-.14.44-.25l.18.37c-.13.12-.3.22-.5.28-.2.07-.41.1-.62.1zm1.8-.06v-2.26c0-.11 0-.23-.01-.35s-.02-.24-.04-.35h.52l.06.64h-.07c.08-.22.2-.39.38-.51s.38-.18.62-.18.44.06.6.17c.16.12.26.3.32.54h-.09c.07-.22.21-.39.39-.52.19-.13.41-.19.66-.19.33 0 .57.1.74.29s.25.49.25.89v1.84h-.54v-1.81c0-.27-.05-.47-.14-.59-.09-.12-.24-.18-.45-.18-.24 0-.43.08-.57.24-.14.16-.21.38-.21.66v1.67h-.54v-1.81c0-.27-.05-.47-.14-.59-.09-.12-.24-.18-.45-.18-.24 0-.43.08-.56.24-.14.16-.2.38-.2.66v1.67h-.54zm6.68.06c-.26 0-.49-.07-.68-.2a.918.918 0 01-.38-.54h.06v.69h-.54v-4.33h.54v2.05h-.06c.07-.23.2-.41.39-.54s.42-.19.68-.19.49.06.69.19c.2.12.35.3.46.53.11.23.16.5.16.82s-.05.59-.16.82c-.11.23-.26.41-.46.53-.2.12-.43.18-.69.18zm-.12-.43c.27 0 .48-.09.64-.28.16-.19.24-.46.24-.83s-.08-.64-.24-.83c-.16-.19-.38-.28-.64-.28s-.49.09-.64.28c-.16.18-.24.46-.24.82s.08.64.24.83c.16.19.37.28.64.28zm3.43.43c-.47 0-.84-.14-1.12-.41-.27-.27-.41-.64-.41-1.12 0-.31.06-.59.18-.82s.29-.41.5-.54c.21-.13.46-.19.74-.19s.5.06.69.17c.19.12.33.28.43.49.1.21.15.46.15.75v.18h-2.27v-.32h1.9l-.1.08c0-.31-.07-.54-.2-.71-.14-.17-.33-.25-.6-.25-.29 0-.51.1-.67.3s-.24.47-.24.81v.05c0 .36.09.63.27.82.18.18.43.28.74.28.18 0 .34-.03.49-.08.15-.05.3-.14.44-.25l.18.37c-.13.12-.3.22-.5.28-.2.07-.41.1-.62.1zm1.8-.06v-2.6c0-.12-.02-.24-.03-.36h.52l.06.74h-.09c.04-.17.11-.32.2-.44.1-.12.21-.21.35-.26s.28-.09.42-.09h.16c.04 0 .09.01.13.03v.48c-.07-.02-.12-.04-.17-.04h-.18a.783.783 0 00-.72.43c-.06.13-.1.27-.1.42v1.71h-.54zm4.87.06c-.29 0-.54-.06-.75-.19a1.2 1.2 0 01-.49-.53c-.12-.23-.18-.5-.18-.82s.06-.59.18-.82c.12-.23.28-.41.49-.53.21-.12.46-.19.75-.19s.54.06.76.19c.21.12.38.3.49.53.12.23.17.5.17.82s-.06.59-.17.82c-.12.23-.28.41-.49.53-.21.12-.47.19-.76.19zm0-.43c.27 0 .48-.09.64-.28.16-.19.24-.46.24-.83s-.08-.64-.24-.82c-.16-.18-.37-.28-.64-.28s-.49.09-.64.28c-.16.18-.24.46-.24.82s.08.64.24.83c.16.19.37.28.64.28zm2.22.37v-2.55h-.58v-.41h.72l-.15.14v-.48c0-.35.09-.61.26-.79.17-.18.42-.27.75-.27.08 0 .16 0 .25.02.09.01.16.03.22.06V32s-.11-.04-.18-.05c-.07-.01-.14-.02-.21-.02-.12 0-.22.02-.31.07a.43.43 0 00-.19.21.9.9 0 00-.06.36v.42l-.08-.11h.9v.41h-.82v2.55h-.54zm3.32-4.23h1.05l1.23 2.29 1.23-2.29h1.09v4.23h-.95v-2.79l-1.13 2.11h-.49l-1.1-2.05v2.73h-.92v-4.23zm5.34 0h1.89c.92 0 1.4.38 1.4 1.1 0 .42-.16.7-.49.86.47.17.71.53.71 1.06 0 .78-.51 1.2-1.4 1.2h-2.11V31.6zm1.81 1.69c.35 0 .51-.14.51-.42s-.15-.42-.49-.42h-.87v.85h.86zm.16 1.7c.38 0 .54-.15.54-.44s-.18-.44-.61-.44h-.95V35h1.02zm1.86.56v-.95c.38.31.92.47 1.46.47.49 0 .74-.13.74-.44 0-.22-.13-.35-.6-.46l-.52-.12c-.78-.18-1.11-.55-1.11-1.2 0-.88.61-1.33 1.67-1.33.53 0 1 .11 1.31.3v.94c-.36-.26-.81-.4-1.3-.4s-.71.13-.71.42c0 .22.15.33.61.43l.54.12c.76.17 1.08.54 1.08 1.22 0 .92-.6 1.36-1.69 1.36-.61 0-1.15-.13-1.48-.36zm3.65-3.95h1.89c.92 0 1.4.38 1.4 1.1 0 .42-.16.7-.49.86.47.17.71.53.71 1.06 0 .78-.51 1.2-1.4 1.2h-2.11V31.6zm1.81 1.69c.35 0 .51-.14.51-.42s-.15-.42-.49-.42h-.87v.85h.86zm.16 1.7c.38 0 .54-.15.54-.44s-.18-.44-.61-.44h-.95V35h1.02zm5.55.9c-.46 0-.84-.09-1.15-.26a1.7 1.7 0 01-.7-.73c-.15-.32-.23-.7-.23-1.14s.08-.82.25-1.14.4-.56.71-.74.68-.26 1.11-.26c.3 0 .57.04.79.13s.42.21.6.38l-.21.44c-.13-.11-.25-.2-.36-.26s-.24-.11-.37-.14-.28-.04-.45-.04c-.48 0-.85.14-1.11.43-.26.29-.38.69-.38 1.22s.12.94.37 1.22.63.42 1.15.42c.18 0 .36-.02.54-.05.18-.04.35-.09.51-.15l-.11.28V34.1h-1.04v-.42h1.51v1.94c-.18.09-.39.16-.65.22s-.52.08-.78.08zm2.26-.06v-2.6c0-.12-.02-.24-.03-.36h.52l.06.74h-.09c.04-.17.11-.32.2-.44.1-.12.21-.21.35-.26s.28-.09.42-.09h.16c.04 0 .09.01.13.03v.48c-.07-.02-.12-.04-.17-.04h-.18a.783.783 0 00-.72.43c-.06.13-.1.27-.1.42v1.71h-.54zm3.34.06c-.29 0-.54-.06-.75-.19a1.2 1.2 0 01-.49-.53c-.12-.23-.18-.5-.18-.82s.06-.59.18-.82c.12-.23.28-.41.49-.53.21-.12.46-.19.75-.19s.54.06.76.19c.21.12.38.3.49.53.12.23.17.5.17.82s-.06.59-.17.82c-.12.23-.28.41-.49.53-.21.12-.47.19-.76.19zm0-.43c.27 0 .48-.09.64-.28.16-.19.24-.46.24-.83s-.08-.64-.24-.82c-.16-.18-.37-.28-.64-.28s-.49.09-.64.28c-.16.18-.24.46-.24.82s.08.64.24.83c.16.19.37.28.64.28zm3.13.43c-.36 0-.62-.1-.8-.29-.18-.19-.27-.49-.27-.89v-1.84h.54v1.82c0 .26.05.45.16.57.11.12.27.18.49.18.24 0 .44-.08.59-.24.15-.16.23-.38.23-.65v-1.68h.54v2.96h-.52v-.65h.08c-.08.22-.21.4-.39.52-.18.12-.39.19-.64.19zm2.32 1.21v-3.53c0-.11 0-.23-.01-.35 0-.12-.02-.24-.04-.35h.52l.06.68h-.06c.06-.23.18-.41.38-.54s.42-.2.69-.2.49.06.69.18c.2.12.35.3.46.53.11.23.16.5.16.82s-.05.59-.16.82c-.11.23-.26.41-.46.53-.2.12-.43.18-.69.18s-.49-.07-.68-.2a.99.99 0 01-.39-.53h.06v1.95h-.54zM87 35.47c.27 0 .49-.09.65-.28.16-.19.24-.46.24-.83s-.08-.64-.24-.82c-.16-.18-.38-.28-.65-.28s-.49.09-.64.28c-.16.18-.24.46-.24.82s.08.64.24.83c.16.19.37.28.64.28z"/></svg>