<?xml version="1.0" encoding="UTF-8" standalone="no"?>
<!-- Created with Inkscape (http://www.inkscape.org/) -->
<svg
   xmlns:dc="http://purl.org/dc/elements/1.1/"
   xmlns:cc="http://creativecommons.org/ns#"
   xmlns:rdf="http://www.w3.org/1999/02/22-rdf-syntax-ns#"
   xmlns:svg="http://www.w3.org/2000/svg"
   xmlns="http://www.w3.org/2000/svg"
   xmlns:sodipodi="http://sodipodi.sourceforge.net/DTD/sodipodi-0.dtd"
   xmlns:inkscape="http://www.inkscape.org/namespaces/inkscape"
   width="600"
   height="747.65814"
   id="svg2"
   sodipodi:version="0.32"
   inkscape:version="0.46"
   version="1.0"
   sodipodi:docname="Logo SIRIM.svg"
   inkscape:output_extension="org.inkscape.output.svg.inkscape">
  <defs
     id="defs4">
    <inkscape:perspective
       sodipodi:type="inkscape:persp3d"
       inkscape:vp_x="0 : 526.18109 : 1"
       inkscape:vp_y="0 : 1000 : 0"
       inkscape:vp_z="744.09448 : 526.18109 : 1"
       inkscape:persp3d-origin="372.04724 : 350.78739 : 1"
       id="perspective10" />
    <clipPath
       id="clipPath2576"
       clipPathUnits="userSpaceOnUse">
      <path
         id="path2578"
         d="M 0.029999,841.98 L 595.05,841.98 L 595.05,0 L 0.029999,0 L 0.029999,841.98 z" />
    </clipPath>
    <clipPath
       id="clipPath2570"
       clipPathUnits="userSpaceOnUse">
      <path
         id="path2572"
         d="M -0.138,841.945 L 595.138,841.945 L 595.138,0.055 L -0.138,0.055 L -0.138,841.945 z" />
    </clipPath>
    <clipPath
       id="clipPath2540"
       clipPathUnits="userSpaceOnUse">
      <path
         id="path2542"
         d="M 28.22,815.372 L 28.22,615.622 L 566.802,615.622 L 566.802,815.372" />
    </clipPath>
    <clipPath
       id="clipPath2446"
       clipPathUnits="userSpaceOnUse">
      <path
         id="path2448"
         d="M 0.029999,841.98 L 595.05,841.98 L 595.05,0 L 0.029999,0 L 0.029999,841.98 z" />
    </clipPath>
    <clipPath
       id="clipPath2440"
       clipPathUnits="userSpaceOnUse">
      <path
         id="path2442"
         d="M -0.138,841.945 L 595.138,841.945 L 595.138,0.055 L -0.138,0.055 L -0.138,841.945 z" />
    </clipPath>
    <clipPath
       id="clipPath2434"
       clipPathUnits="userSpaceOnUse">
      <path
         id="path2436"
         clip-rule="evenodd"
         d="M -0.138,841.945 L 595.158,841.945 L 595.158,0.049 L -0.138,0.049 L -0.138,841.945 z" />
    </clipPath>
    <clipPath
       id="clipPath2424"
       clipPathUnits="userSpaceOnUse">
      <path
         id="path2426"
         d="M 0.029999,841.98 L 595.05,841.98 L 595.05,0 L 0.029999,0 L 0.029999,841.98 z" />
    </clipPath>
    <clipPath
       id="clipPath2418"
       clipPathUnits="userSpaceOnUse">
      <path
         id="path2420"
         d="M -0.138,841.945 L 595.138,841.945 L 595.138,0.055 L -0.138,0.055 L -0.138,841.945 z" />
    </clipPath>
    <inkscape:perspective
       id="perspective2410"
       inkscape:persp3d-origin="372.04724 : 350.78739 : 1"
       inkscape:vp_z="744.09448 : 526.18109 : 1"
       inkscape:vp_y="0 : 1000 : 0"
       inkscape:vp_x="0 : 526.18109 : 1"
       sodipodi:type="inkscape:persp3d" />
  </defs>
  <sodipodi:namedview
     id="base"
     pagecolor="#ffffff"
     bordercolor="#666666"
     borderopacity="1.0"
     gridtolerance="10000"
     guidetolerance="10"
     objecttolerance="10"
     inkscape:pageopacity="0.0"
     inkscape:pageshadow="2"
     inkscape:zoom="0.68079243"
     inkscape:cx="300"
     inkscape:cy="373.82907"
     inkscape:document-units="px"
     inkscape:current-layer="layer1"
     showgrid="false"
     inkscape:window-width="1024"
     inkscape:window-height="714"
     inkscape:window-x="-4"
     inkscape:window-y="-4" />
  <metadata
     id="metadata7">
    <rdf:RDF>
      <cc:Work
         rdf:about="">
        <dc:format>image/svg+xml</dc:format>
        <dc:type
           rdf:resource="http://purl.org/dc/dcmitype/StillImage" />
      </cc:Work>
    </rdf:RDF>
  </metadata>
  <g
     inkscape:label="Layer 1"
     inkscape:groupmode="layer"
     id="layer1"
     transform="translate(-1258.3037,471.77315)">
    <path
       d="M 1258.3037,119.39979 L 1858.3037,119.39979 L 1858.3037,-471.77315 L 1258.3037,-471.77315 L 1258.3037,119.39979 z"
       style="fill:#223f9a;fill-opacity:1;fill-rule:nonzero;stroke:none"
       id="path2512" />
    <path
       d="M 1564.7043,-98.010136 C 1548.1311,-98.010136 1534.6803,-111.4609 1534.6803,-128.03416 C 1534.6803,-144.61942 1548.1311,-158.05817 1564.7043,-158.05817 C 1581.3016,-158.05817 1594.7284,-144.61942 1594.7284,-128.03416 C 1594.7284,-111.4609 1581.3016,-98.010136 1564.7043,-98.010136 z M 1619.2885,-128.03416 L 1641.3497,-145.53215 L 1613.8477,-151.7171 L 1626.158,-177.03335 L 1598.7521,-170.69228 L 1598.8116,-198.85481 L 1576.8581,-181.23672 L 1564.7043,-206.63704 L 1552.5746,-181.23672 L 1530.5971,-198.85481 L 1530.6816,-170.69228 L 1503.2392,-177.03335 L 1515.5495,-151.7171 L 1488.083,-145.53215 L 1510.1452,-128.03416 L 1488.083,-110.54817 L 1515.5495,-104.36322 L 1503.2392,-79.034956 L 1530.6816,-85.376029 L 1530.5971,-57.225508 L 1552.5746,-74.843603 L 1564.7043,-49.443283 L 1576.8581,-74.843603 L 1598.8116,-57.225508 L 1598.7521,-85.376029 L 1626.158,-79.034956 L 1613.8477,-104.36322 L 1641.3497,-110.54817 L 1619.2885,-128.03416"
       style="fill:#fdb813;fill-opacity:1;fill-rule:nonzero;stroke:none"
       id="path2514" />
    <path
       d="M 1720.9138,-77.293563 L 1720.9138,-77.293563 z M 1601.6219,-383.92287 C 1601.6219,-361.02054 1601.6219,-260.75233 1601.6219,-260.75233 L 1704.1003,-67.998126 C 1706.8625,-63.194283 1709.4806,-57.18948 1709.4806,-51.593002 C 1709.4806,-49.095004 1708.9637,-46.681073 1707.7032,-44.483315 C 1704.7604,-39.451289 1697.8909,-36.06458 1690.5295,-36.06458 L 1432.8629,-36.06458 C 1427.5191,-36.06458 1418.067,-36.857214 1414.8244,-42.081393 C 1413.8637,-43.642642 1413.3833,-45.684275 1413.3833,-48.158255 C 1413.3833,-53.298367 1415.4489,-60.22791 1419.4486,-68.214299 C 1419.4726,-68.226309 1530.9218,-253.69068 1530.9218,-253.69068 L 1532.2784,-255.98452 C 1532.2784,-255.98452 1532.2784,-314.85561 1532.2784,-355.43608 C 1534.6448,-356.40886 1583.2232,-376.35681 1601.6219,-383.92287 z M 1691.6939,-384.47531 C 1691.6939,-362.25753 1691.6939,-260.69228 1691.6939,-260.69228 L 1692.8949,-258.54256 C 1693.5915,-257.24552 1763.692,-128.93488 1791.7945,-72.705893 C 1797.2344,-61.885236 1799.913,-50.091801 1799.913,-38.130232 C 1799.913,-22.697886 1795.4329,-6.9893194 1786.6419,7.2540753 C 1773.7561,28.066725 1753.7356,41.001073 1734.3405,41.001073 L 1387.5626,41.001073 C 1364.1083,41.001073 1340.2092,25.7849 1326.6979,2.2340593 C 1319.9485,-9.5233467 1316.5858,-21.881233 1316.5858,-33.974908 C 1316.5858,-45.179872 1319.4566,-56.144644 1325.3173,-66.148647 L 1440.7296,-266.60101 C 1440.7296,-266.60101 1440.7056,-342.89805 1440.7056,-354.17507 C 1449.7128,-357.7179 1495.3128,-375.66026 1513.0515,-382.64985 C 1513.0515,-360.39604 1513.0515,-265.89244 1513.0515,-261.30477 C 1510.3854,-256.84921 1402.5987,-77.461697 1402.5987,-77.461697 C 1396.9541,-66.208695 1394.1679,-56.396845 1394.1679,-47.97811 C 1394.1679,-41.925268 1395.6091,-36.605012 1398.4558,-31.981313 C 1402.7188,-25.087798 1412.1823,-16.861217 1432.8629,-16.861217 L 1690.5295,-16.861217 C 1704.941,-16.861217 1717.8749,-23.754732 1724.312,-34.863619 C 1726.7139,-38.994924 1728.72,-44.579391 1728.72,-51.617022 C 1728.72,-58.690681 1726.6784,-67.241521 1720.9138,-77.293563 C 1720.9138,-77.317582 1631.8621,-244.82759 1620.8497,-265.54416 C 1620.8497,-268.77475 1620.8497,-319.74352 1620.8497,-358.37843 C 1623.7561,-359.43528 1673.5354,-377.77395 1691.6939,-384.47531 z M 1607.6027,-407.13744 C 1607.6027,-407.13744 1546.3296,-381.97731 1532.2784,-376.2127 C 1532.2784,-381.41286 1532.2784,-410.86042 1532.2784,-410.86042 L 1421.4778,-367.26554 C 1421.4778,-367.26554 1421.4778,-276.58099 1421.4778,-271.7171 C 1419.0278,-267.40565 1308.72,-75.8404 1308.72,-75.8404 C 1301.2135,-62.954091 1297.455,-48.61462 1297.455,-34.010937 C 1297.455,-18.542562 1301.6584,-2.7859567 1310.0411,11.805717 C 1326.9381,41.205236 1357.3589,60.204436 1387.5626,60.204436 L 1734.3405,60.204436 C 1760.7252,60.204436 1786.4017,44.183619 1802.975,17.354155 C 1813.6875,0.012281841 1819.1284,-19.179071 1819.1284,-38.118223 C 1819.1284,-53.010136 1815.7657,-67.745925 1809.0038,-81.292762 C 1782.6787,-133.93087 1720.0366,-248.87483 1710.9093,-265.60421 C 1710.9093,-270.32399 1710.9093,-412.03736 1710.9093,-412.03736 C 1710.9093,-412.03736 1634.5647,-383.89885 1620.8497,-378.85481 C 1620.8497,-383.62263 1620.8497,-412.5898 1620.8497,-412.5898 L 1607.6027,-407.13744"
       style="fill:#fdb813;fill-opacity:1;fill-rule:nonzero;stroke:none"
       id="path2516" />
    <path
       d="M 1288.7476,225.4086 C 1269.3525,222.17801 1261.3061,209.86817 1261.3061,194.47185 C 1261.3061,165.99707 1286.802,158.29891 1319.4566,158.29891 C 1364.2044,158.29891 1382.6387,171.07713 1384.0443,194.31572 L 1337.9034,194.31572 C 1337.9034,189.86016 1335.489,187.08594 1331.838,185.54871 C 1328.3197,183.85536 1323.8156,183.24287 1319.4566,183.24287 C 1307.6392,183.24287 1303.5434,186.47345 1303.5434,191.08514 C 1303.5434,194.1596 1304.8164,196.1652 1308.7441,196.77769 L 1356.2781,206.43342 C 1376.2736,209.664 1388.5474,217.86657 1388.5474,236.49347 C 1388.5474,263.27489 1368.5874,275.88498 1323.9597,275.88498 C 1293.4073,275.88498 1260.0446,271.27329 1259.9005,238.95544 L 1303.5194,238.95544 C 1303.6395,242.64239 1309.1639,245.10436 1311.9866,246.79771 C 1314.9525,248.33494 1319.3125,249.10355 1325.497,249.10355 C 1337.9034,249.10355 1341.2661,245.41661 1341.2661,240.18042 C 1341.2661,236.94983 1339.4281,233.71925 1334.0843,232.79451 L 1288.7476,225.4086"
       style="fill:#223f9a;fill-opacity:1;fill-rule:nonzero;stroke:none"
       id="path2518" />
    <path
       d="M 1399.9931,272.04191 L 1443.4073,272.04191 L 1443.4073,162.14794 L 1399.9931,162.14794 L 1399.9931,272.04191 z"
       style="fill:#223f9a;fill-opacity:1;fill-rule:nonzero;stroke:none"
       id="path2520" />
    <path
       d="M 1512.5231,210.48066 L 1543.2917,210.48066 C 1551.758,210.48066 1555.3013,207.09395 1555.3013,200.1644 C 1555.3013,191.85376 1549.897,189.86016 1542.6547,189.86016 L 1512.5231,189.86016 L 1512.5231,210.48066 z M 1469.0963,162.154 L 1560.525,162.154 C 1573.015,162.154 1580.5455,163.23486 1586.5263,166.15319 C 1594.6928,170.15239 1601.4778,180.7809 1601.4778,192.77849 C 1601.4778,203.09475 1597.1543,216.76168 1584.5442,220.44863 L 1584.5442,220.76088 C 1591.0054,222.61036 1600.6131,228.2789 1601.3577,237.82653 L 1604.24,272.04191 L 1560.1647,272.04191 C 1560.1647,272.04191 1562.1468,232.80652 1543.2917,232.80652 L 1512.5231,232.80652 L 1512.5231,272.04191 L 1469.0963,272.04191 L 1469.0963,162.154"
       style="fill:#223f9a;fill-opacity:1;fill-rule:nonzero;stroke:none"
       id="path2522" />
    <path
       d="M 1620.4529,272.04191 L 1663.8374,272.04191 L 1663.8374,162.14794 L 1620.4529,162.14794 L 1620.4529,272.04191 z"
       style="fill:#223f9a;fill-opacity:1;fill-rule:nonzero;stroke:none"
       id="path2524" />
    <path
       d="M 1687.8028,162.154 L 1750.3008,162.154 L 1771.3176,226.02109 L 1771.6539,226.02109 L 1792.7072,162.154 L 1855.1572,162.154 L 1855.1572,272.04191 L 1813.5674,272.04191 L 1813.5674,208.33094 L 1813.2312,208.33094 L 1788.8882,272.04191 L 1754.1199,272.04191 L 1729.7404,208.33094 L 1729.4166,208.33094 L 1729.4166,272.04191 L 1687.8028,272.04191 L 1687.8028,162.154"
       style="fill:#223f9a;fill-opacity:1;fill-rule:nonzero;stroke:none"
       id="path2526" />
  </g>
</svg>
